<svg style="position: absolute; width: 0; height: 0; overflow: hidden;" aria-hidden="true" version="1.1" xmlns="http://www.w3.org/2000/svg" xmlns:xlink="http://www.w3.org/1999/xlink">
    <style>
        .default-palette, .palette0 {color: currentColor;
            --color0: #f4f4fd;
            --color1: #2e2f42;
            --color2: #4d5ae5;
            --color3: #fff;
        }
    </style>
    <defs>
        <symbol id="burger-menu" viewBox="0 0 24 24" fill="var(--color1, #2e2f42)" clip-rule="evenodd" fill-rule="evenodd">
            <path d="M3.6 6c0-0.3183 0.1264-0.6235 0.3515-0.8485C4.1765 4.9264 4.4818 4.8 4.8 4.8h14.4c0.3183 0 0.6235 0.1264 0.8485 0.3515C20.2736 5.3765 20.4 5.6817 20.4 6s-0.1264 0.6235-0.3515 0.8485C19.8235 7.0736 19.5183 7.2 19.2 7.2H4.8c-0.3182 0-0.6235-0.1264-0.8485-0.3515C3.7264 6.6235 3.6 6.3183 3.6 6z" />
            <path d="M3.6 12c0-0.3183 0.1264-0.6235 0.3515-0.8485C4.1765 10.9264 4.4818 10.8 4.8 10.8h14.4c0.3183 0 0.6235 0.1264 0.8485 0.3515C20.2736 11.3765 20.4 11.6817 20.4 12s-0.1264 0.6235-0.3515 0.8485C19.8235 13.0736 19.5183 13.2 19.2 13.2H4.8c-0.3182 0-0.6235-0.1264-0.8485-0.3515C3.7264 12.6235 3.6 12.3183 3.6 12z" />
            <path d="M3.6 18c0-0.3183 0.1264-0.6235 0.3515-0.8485C4.1765 16.9264 4.4818 16.8 4.8 16.8h14.4c0.3183 0 0.6235 0.1264 0.8485 0.3515C20.2736 17.3765 20.4 17.6817 20.4 18s-0.1264 0.6235-0.3515 0.8485C19.8235 19.0736 19.5183 19.2 19.2 19.2H4.8c-0.3182 0-0.6235-0.1264-0.8485-0.3515C3.7264 18.6235 3.6 18.3183 3.6 18z" />
        </symbol>
        <symbol id="icons" viewBox="0 0 915 915" aria-hidden="true" version="1.1" xmlns:xlink="http://www.w3.org/1999/xlink">
            <defs>
                <symbol id="icon-checkbox" viewBox="0 0 32 32">
                    <path stroke-width="2" d="M5.6 3h20.8C27.836 3 29 4.164 29 5.6v20.8c0 1.436-1.164 2.6-2.6 2.6H5.6C4.164 29 3 27.836 3 26.4V5.6C3 4.164 4.164 3 5.6 3z" />
                </symbol>
                <symbol id="icon-close" viewBox="0 0 32 32">
                    <path d="M30.25 4.62 27.38 1.75 16 13.13 4.62 1.75 1.75 4.62 13.13 16 1.75 27.38l2.87 2.87L16 18.87 27.38 30.25l2.87-2.87L18.87 16z" />
                </symbol>
                <symbol id="icon-envelope" viewBox="0 0 43 32">
                    <path d="M36.25 1.25H6.75c-2.028 0-3.669 1.659-3.669 3.688L3.063 27.063c0 2.028 1.659 3.688 3.688 3.688h29.5c2.028 0 3.688-1.659 3.688-3.688V4.938c0-2.028-1.659-3.688-3.689-3.688zM35.513 9.086 22.478 17.235c-0.59 0.369-1.364 0.369-1.954 0L7.489 9.086C7.028 8.791 6.752 8.293 6.752 7.759c0-1.235 1.346-1.973 2.397-1.327l12.353 7.725 12.353-7.725c1.051-0.645 2.397 0.092 2.397 1.327 0 0.535-0.277 1.033-0.739 1.327z" />
                </symbol>
                <symbol id="icon-frame" viewBox="0 0 38 32">
                    <path fill="var(--color3, #fff)" d="M36.001 2 2.401 17.75l10.738 3.314 16.562-12.939-12.598 14.163 0.01 3e-3-0.013-3e-3V30l6.022-5.854 7.628 2.354z" />
                </symbol>
                <symbol id="icon-person" viewBox="0 0 33 32">
                    <path d="M16.5 16c4.075 0 7.375-3.3 7.375-7.375S20.575 1.25 16.5 1.25 9.125 4.55 9.125 8.625 12.425 16 16.5 16zM16.5 19.688c-4.923 0-14.75 2.471-14.75 7.375v1.844c0 1.014 0.83 1.844 1.844 1.844h25.813c1.014 0 1.844-0.83 1.844-1.844v-1.844c0-4.904-9.827-7.375-14.751-7.375z" />
                </symbol>
                <symbol id="icon-phone" viewBox="0 0 34 32">
                    <path d="M29.213 21.64l-4.383-0.5c-1.053-0.121-2.088 0.242-2.83 0.984l-3.175 3.175c-4.884-2.485-8.887-6.471-11.372-11.372l3.192-3.193c0.742-0.742 1.104-1.777 0.984-2.83l-0.5-4.349c-0.207-1.743-1.674-3.054-3.434-3.054H4.71c-1.95 0-3.572 1.622-3.451 3.572C2.174 18.811 13.96 30.58 28.68 31.494c1.95 0.121 3.572-1.501 3.572-3.451v-2.986c0.017-1.743-1.294-3.21-3.039-3.417z" />
                </symbol>
                <symbol id="icon-antena" viewBox="0 0 32 32">
                    <path fill="var(--color1, #2e2f42)" d="M30.773 22.098 22.33 13.593l0.937-4.615c0.242 0.094 0.499 0.144 0.758 0.146h6e-3c1.192 0.014 2.17-0.941 2.184-2.133s-0.941-2.17-2.133-2.184-2.17 0.941-2.184 2.133c-3e-3 0.255 0.039 0.509 0.125 0.749l-4.96 0.605-8.091-8.133C8.873 0.06 8.737 2e-3 8.595 1e-3 8.455 2e-3 8.321 0.057 8.222 0.156L6.709 1.66c-0.208 0.208-0.208 0.546 0 0.754L7.523 3.24C4.37 9.038 5.394 16.218 10.042 20.903c0.043 0.041 0.092 0.074 0.146 0.098-0.034 0.18-0.051 0.364-0.052 0.547v6.187h-6.4c-1.472 2e-3-2.665 1.195-2.667 2.667v1.067c0 0.295 0.239 0.533 0.533 0.533h24.533c0.295 0 0.533-0.239 0.533-0.533v-1.067c-2e-3-1.472-1.195-2.665-2.667-2.667h-6.4v-2.742c1.003 0.21 2.024 0.317 3.049 0.32 2.458-3e-3 4.877-0.615 7.04-1.783l0.818 0.823c0.099 0.101 0.235 0.159 0.377 0.16 0.14-1e-3 0.274-0.056 0.373-0.155l1.513-1.504c0.208-0.208 0.208-0.546 2e-3-0.756zM23.28 6.233c0.418-0.415 1.093-0.414 1.509 4e-3s0.414 1.093-4e-3 1.508c-0.2 0.199-0.47 0.31-0.752 0.31h-3e-3c-0.589-3e-3-1.064-0.483-1.061-1.072 2e-3-0.282 0.115-0.552 0.314-0.751zM22.024 9.738l-0.598 2.946-1.175-1.182zM21.419 8.836l-1.92 1.909-1.485-1.493zM24.004 28.8c0.884 0 1.6 0.716 1.6 1.6v0.533H2.137V30.4c0-0.884 0.716-1.6 1.6-1.6zM16.537 26.667v1.067h-5.333v-1.067zM11.204 25.6v-4.053c0-1.294 1.196-2.347 2.667-2.347s2.667 1.053 2.667 2.347V25.6zM17.604 23.904v-2.357c0-1.882-1.675-3.413-3.733-3.413-1.331-0.02-2.576 0.657-3.281 1.786C6.532 15.646 5.619 9.275 8.311 4.033l18.602 18.708c-2.872 1.461-6.165 1.873-9.309 1.163zM28.893 23.22 7.836 2.039 8.591 1.287l7.935 7.98c4e-3 0 6e-3 7e-3 0.01 0.01l13.115 13.191z" />
                    <path fill="var(--color2, #4d5ae5)" d="M13.876 20.267h-5e-3c-0.884-1e-3-1.601 0.714-1.602 1.598s0.714 1.601 1.598 1.602h5e-3c0.884 1e-3 1.601-0.714 1.602-1.598s-0.714-1.601-1.598-1.602zM14.249 22.245c-0.1 0.1-0.236 0.156-0.378 0.155-0.295-2e-3-0.532-0.242-0.531-0.536 1e-3-0.141 0.057-0.276 0.157-0.375s0.233-0.154 0.373-0.155c0.295 2e-3 0.532 0.241 0.531 0.536-1e-3 0.141-0.057 0.276-0.157 0.375z" />
                </symbol>
                <symbol id="icon-astronaut" viewBox="0 0 32 32">
                    <path fill="var(--color2, #4d5ae5)" d="M31.974 4.524c-0.063-0.193-0.229-0.333-0.43-0.363l-1.91-0.278-0.855-1.731c-0.179-0.365-0.777-0.365-0.956 0l-0.855 1.731-1.91 0.278c-0.201 0.029-0.367 0.17-0.431 0.363-0.062 0.193-0.011 0.405 0.135 0.547l1.383 1.348-0.326 1.903c-0.034 0.2 0.048 0.402 0.212 0.522 0.166 0.121 0.382 0.135 0.562 0.04l1.709-0.899 1.709 0.899c0.078 0.041 0.164 0.061 0.249 0.061 0.11 0 0.221-0.034 0.314-0.102 0.164-0.119 0.246-0.322 0.212-0.522L30.46 6.418 31.843 5.07c0.145-0.142 0.197-0.354 0.131-0.546zM29.511 5.851c-0.125 0.122-0.183 0.299-0.153 0.472l0.191 1.114-1-0.526C28.471 6.87 28.386 6.85 28.3 6.85s-0.17 0.02-0.249 0.061L27.05 7.437l0.191-1.114c0.03-0.173-0.028-0.349-0.153-0.472l-0.81-0.789 1.119-0.163c0.174-0.025 0.324-0.134 0.402-0.292l0.5-1.013 0.5 1.013c0.078 0.157 0.228 0.267 0.402 0.292l1.119 0.163z" />
                    <path fill="var(--color2, #4d5ae5)" d="M26.133 20.522h-1.067v1.067h1.067z" />
                    <path fill="var(--color2, #4d5ae5)" d="M26.133 22.656h-1.067v1.067h1.067z" />
                    <path fill="var(--color2, #4d5ae5)" d="M27.2 21.589h-1.067v1.067H27.2z" />
                    <path fill="var(--color2, #4d5ae5)" d="M25.067 21.589H24v1.067h1.067z" />
                    <path fill="var(--color2, #4d5ae5)" d="M22.4 26.389h-1.067v1.067H22.4z" />
                    <path fill="var(--color2, #4d5ae5)" d="M22.4 28.522h-1.067v1.067H22.4z" />
                    <path fill="var(--color2, #4d5ae5)" d="M23.467 27.456H22.4v1.067h1.067z" />
                    <path fill="var(--color2, #4d5ae5)" d="M21.333 27.456h-1.067v1.067h1.067z" />
                    <path fill="var(--color2, #4d5ae5)" d="M16 24.256h-1.067v1.067H16z" />
                    <path fill="var(--color2, #4d5ae5)" d="M16 26.389h-1.067v1.067H16z" />
                    <path fill="var(--color2, #4d5ae5)" d="M17.067 25.322H16v1.067h1.067z" />
                    <path fill="var(--color2, #4d5ae5)" d="M14.933 25.322h-1.067v1.067h1.067z" />
                    <path fill="var(--color2, #4d5ae5)" d="M5.867 6.122H4.8v1.067h1.067z" />
                    <path fill="var(--color2, #4d5ae5)" d="M5.867 8.255H4.8v1.067h1.067z" />
                    <path fill="var(--color2, #4d5ae5)" d="M6.933 7.189H5.866v1.067h1.067z" />
                    <path fill="var(--color2, #4d5ae5)" d="M4.8 7.189H3.733v1.067H4.8z" />
                    <path fill="var(--color1, #2e2f42)" d="M24.715 14.159c-0.287-0.388-0.709-0.637-1.188-0.705-0.481-0.068-0.956 0.058-1.34 0.352l-1.252 0.96-1.898 1.417-1.358-0.541c2.421-1.086 4.114-3.508 4.114-6.32 0-3.823-3.123-6.933-6.961-6.933s-6.961 3.11-6.961 6.933c0 1.386 0.414 2.674 1.12 3.758l-2.764-0.024c-2e-3 0-3e-3 0-5e-3 0-9e-3 0-0.015 4e-3-0.023 5e-3-0.053 2e-3-0.105 0.013-0.155 0.031-0.013 5e-3-0.026 8e-3-0.038 0.013-6e-3 3e-3-0.013 3e-3-0.019 6e-3l-3.233 1.596c-1e-3 0-1e-3 0-1e-3 1e-3L0.86 15.619c-0.021 9e-3-0.042 0.021-0.063 0.035-0.755 0.502-1.012 1.489-0.598 2.295 0.22 0.429 0.595 0.745 1.056 0.889 0.178 0.055 0.359 0.083 0.539 0.083 0.29 0 0.577-0.071 0.839-0.211l1.388-0.738 2.264-1.169 1.357-8e-3L2.2 22.211c-1e-3 1e-3-1e-3 1e-3-2e-3 1e-3l-1.339 1.333c-0.316 0.315-0.49 0.732-0.49 1.178s0.174 0.863 0.49 1.179c0.325 0.323 0.752 0.485 1.179 0.485s0.854-0.162 1.18-0.485l1.314-1.309 1.741-1.3 0.901 0.897-1.762 1.754c0 1e-3-1e-3 1e-3-2e-3 1e-3l-1.339 1.333c-0.316 0.315-0.49 0.732-0.49 1.178s0.174 0.863 0.49 1.179c0.325 0.323 0.753 0.485 1.18 0.485s0.855-0.162 1.18-0.485l3.482-3.467c1e-3-1e-3 1e-3-1e-3 1e-3-2e-3l1.01-1-4e-3-4e-3c6e-3-6e-3 0.015-9e-3 0.022-0.015l5.166-5.658 3.471 0.494c0.025 4e-3 0.05 5e-3 0.075 5e-3 0.065 0 0.127-0.015 0.187-0.038 0.018-6e-3 0.033-0.015 0.05-0.023 0.019-0.01 0.039-0.015 0.058-0.027l3.213-2.133c0.012-8e-3 0.018-0.021 0.029-0.029 0.013-0.01 0.029-0.014 0.041-0.026l1.271-1.191c0.662-0.62 0.753-1.635 0.212-2.362zM2.13 17.77c-0.173 0.093-0.37 0.111-0.558 0.052-0.187-0.058-0.338-0.186-0.427-0.358-0.161-0.314-0.068-0.695 0.214-0.902l1.314-0.632 0.449 1.313zM5.628 15.942l-1.548 0.8-0.439-1.283 2.027-1.001zM20.727 9.322c0 0.918-0.219 1.785-0.599 2.559l-4.181-1.899c-0.044-0.573-0.341-1.075-0.788-1.388l1.464-4.86c2.378 0.756 4.105 2.974 4.104 5.588zM8.938 9.322c0-3.235 2.644-5.867 5.894-5.867 0.253 0 0.5 0.021 0.745 0.052l-1.432 4.754c-0.019-1e-3-0.037-6e-3-0.057-6e-3-1.033 0-1.873 0.837-1.873 1.867s0.84 1.867 1.873 1.867c0.694 0 1.294-0.383 1.618-0.945l3.862 1.755c-1.075 1.446-2.795 2.39-4.737 2.39-3.25 0-5.894-2.632-5.893-5.867zM14.894 10.122c0 0.441-0.362 0.8-0.806 0.8s-0.806-0.359-0.806-0.8 0.362-0.8 0.806-0.8 0.806 0.359 0.806 0.8zM2.465 25.146c-0.236 0.234-0.619 0.234-0.854 1e-3-0.114-0.114-0.176-0.263-0.176-0.423s0.062-0.309 0.176-0.421l0.962-0.958 0.851 0.848zM5.679 28.88c-0.236 0.234-0.619 0.235-0.855 1e-3-0.114-0.114-0.176-0.263-0.176-0.423s0.062-0.309 0.176-0.421l0.963-0.959 0.852 0.848zM9.16 25.411c-1e-3 0-1e-3 0-2e-3 1e-3l-1.765 1.76-0.852-0.848 1.763-1.755c0 0 0 0 0 0s1e-3-1e-3 2e-3-1e-3c0.04-0.04 0.065-0.088 0.09-0.135 7e-3-0.014 0.02-0.026 0.026-0.04 0.017-0.041 0.019-0.085 0.026-0.129 3e-3-0.025 0.014-0.047 0.014-0.073 0-0.036-0.013-0.07-0.02-0.106-6e-3-0.032-6e-3-0.065-0.019-0.095-0.02-0.05-0.055-0.094-0.091-0.138-0.01-0.012-0.014-0.027-0.025-0.038 0 0 0 0-1e-3 0s-1e-3-2e-3-1e-3-2e-3l-1.607-1.6c-0.017-0.017-0.039-0.024-0.058-0.038-0.028-0.022-0.055-0.042-0.087-0.058-0.03-0.015-0.061-0.024-0.093-0.033-0.034-0.01-0.067-0.017-0.103-0.02-0.033-2e-3-0.063 1e-3-0.095 5e-3-0.036 4e-3-0.069 9e-3-0.104 0.02-0.034 0.011-0.063 0.027-0.094 0.045-0.02 0.011-0.042 0.015-0.061 0.029L4.23 23.486 3.329 22.589l2.399-2.386 4.361 4.289zM15.979 18.394c-0.015-2e-3-0.03 4e-3-0.045 3e-3-0.039-2e-3-0.076 1e-3-0.115 7e-3-0.03 5e-3-0.059 0.011-0.088 0.021-0.034 0.012-0.065 0.028-0.097 0.047-0.03 0.018-0.057 0.037-0.083 0.061-0.013 0.011-0.028 0.017-0.04 0.029l-4.698 5.146-4.328-4.257 2.833-2.818c0.209-0.208 0.21-0.546 2e-3-0.755-0.105-0.105-0.243-0.157-0.381-0.156L6.72 15.735l0.028-1.607 3.104 0.027c1.265 1.294 3.029 2.101 4.981 2.101 0.437 0 0.864-0.045 1.279-0.123 0.04 0.032 0.079 0.065 0.13 0.085l2.41 0.96 0.331 1.644zM20.02 18.572l-0.313-1.558 1.446-1.08 0.947 1.257zM23.774 15.741l-0.838 0.785-0.931-1.236 0.831-0.637c0.155-0.119 0.351-0.168 0.543-0.143 0.193 0.027 0.364 0.128 0.48 0.284 0.217 0.292 0.18 0.699-0.085 0.947z" />
                    <path fill="var(--color1, #2e2f42)" d="M13.602 18.544l-2.143-2.133c-0.207-0.207-0.545-0.207-0.753 0l-2.142 2.133c-0.1 0.101-0.157 0.236-0.157 0.378S8.463 19.2 8.564 19.3l2.142 2.133c0.104 0.103 0.241 0.155 0.377 0.155s0.273-0.052 0.376-0.155l2.143-2.133c0.1-0.1 0.157-0.236 0.157-0.378s-0.057-0.278-0.157-0.378zM11.083 20.303 9.696 18.922l1.387-1.381 1.387 1.381z" />
                    <path fill="var(--color1, #2e2f42)" d="M17.164 5.071 16.906 6.107c0.071 0.018 1.738 0.452 1.738 2.149h1.067c0-2.017-1.666-2.965-2.547-3.185z" />
                    <path fill="var(--color1, #2e2f42)" d="M19.711 9.322h-1.067v1.067h1.067z" />
                </symbol>
                <symbol id="icon-clock" viewBox="0 0 32 32">
                    <path fill="var(--color1, #2e2f42)" d="M31.297 15.301C31.295 6.849 24.442-2e-3 15.989 0S0.686 6.855 0.688 15.308c1e-3 6.658 4.307 12.551 10.649 14.576 0.06 0.019 0.123 0.029 0.187 0.029 0.121 0 0.239-0.032 0.342-0.094 0.135-0.08 0.236-0.207 0.283-0.356l3.865-12.25c1.057-5e-3 1.909-0.866 1.903-1.923s-0.866-1.909-1.923-1.903c-0.284 1e-3-0.565 0.067-0.82 0.191l-5.106-5.107C9.815 8.226 9.411 8.233 9.166 8.487c-0.239 0.247-0.239 0.639 0 0.886l5.103 5.109c-0.392 0.799-0.168 1.764 0.536 2.309l-3.683 11.673C3.844 25.783 0.118 17.71 2.799 10.432S13.553-0.572 20.831 2.109s11.004 10.754 8.323 18.032c-1.31 3.556-4.001 6.431-7.462 7.973l-0.398-1.874c-0.073-0.345-0.411-0.565-0.756-0.492-0.109 0.023-0.209 0.074-0.292 0.148l-3.837 3.426c-0.263 0.234-0.287 0.637-0.052 0.9 0.076 0.085 0.174 0.149 0.283 0.184l4.899 1.564c0.335 0.108 0.694-0.077 0.802-0.412 0.034-0.106 0.04-0.219 0.017-0.328l-0.391-1.839c5.664-2.388 9.342-7.942 9.33-14.09zM15.992 14.664c0.352 0 0.638 0.286 0.638 0.638s-0.286 0.638-0.638 0.638-0.638-0.285-0.638-0.638 0.285-0.638 0.638-0.638zM18.093 29.528l2.184-1.948 0.603 2.84z" />
                    <path fill="var(--color2, #4d5ae5)" d="M15.354 3.185V4.46c0 0.352 0.285 0.638 0.638 0.638S16.63 4.813 16.63 4.46V3.185c0-0.352-0.286-0.638-0.638-0.638s-0.638 0.286-0.638 0.638z" />
                    <path fill="var(--color2, #4d5ae5)" d="M3.876 14.664c-0.352 0-0.638 0.286-0.638 0.638s0.285 0.638 0.638 0.638h1.275c0.352 0 0.638-0.285 0.638-0.638s-0.285-0.638-0.638-0.638z" />
                    <path fill="var(--color2, #4d5ae5)" d="M28.108 15.939c0.352 0 0.638-0.285 0.638-0.638s-0.285-0.638-0.638-0.638h-1.275c-0.352 0-0.638 0.286-0.638 0.638s0.286 0.638 0.638 0.638z" />
                </symbol>
                <symbol id="icon-diagram" viewBox="0 0 32 32">
                    <path fill="var(--color2, #4d5ae5)" d="M14.925 14.965h1.066v4.798h-1.066z" />
                    <path fill="var(--color2, #4d5ae5)" d="M19.19 17.097h1.066v2.665H19.19z" />
                    <path fill="var(--color2, #4d5ae5)" d="M10.661 18.696h1.066v1.066h-1.066z" />
                    <path fill="var(--color2, #4d5ae5)" d="M7.463 18.163h1.066v1.599H7.463z" />
                    <path fill="var(--color1, #2e2f42)" d="M1.599 28.291h25.587c0.883 0 1.599-0.716 1.599-1.599V24.56c0-0.883-0.716-1.599-1.599-1.599h-0.533V9.668L29.681 6.8c0.703 0.346 1.553 0.136 2.013-0.499s0.396-1.508-0.152-2.068-1.42-0.644-2.065-0.198c-0.644 0.446-0.873 1.292-0.542 2.002L26.654 8.2V6.97c0-0.883-0.716-1.599-1.599-1.599H3.733c-0.883 0-1.599 0.716-1.599 1.599v15.992H1.601c-0.883 0-1.599 0.716-1.599 1.599v2.132c0 0.883 0.716 1.599 1.597 1.598zM30.384 4.837c0.294 0 0.533 0.239 0.533 0.533s-0.239 0.533-0.533 0.533-0.533-0.239-0.533-0.533 0.239-0.533 0.533-0.533zM3.198 6.969c0-0.294 0.239-0.533 0.533-0.533h21.322c0.294 0 0.533 0.239 0.533 0.533v2.239l-1.066 1.013V8.035c0-0.294-0.239-0.533-0.533-0.533H4.797c-0.294 0-0.533 0.239-0.533 0.533v13.326c0 0.294 0.239 0.533 0.533 0.533h19.19c0.294 0 0.533-0.239 0.533-0.533v-9.674l1.066-1.01v12.284H3.198zM7.996 13.899c-0.721-2e-3-1.354 0.478-1.546 1.174s0.105 1.433 0.725 1.801 1.41 0.276 1.928-0.226l1.853 0.93c0.215 0.108 0.476 0.057 0.636-0.123l3.939-4.431 3.872 2.901c0.208 0.156 0.498 0.139 0.686-0.039l3.365-3.188v8.131H5.33V8.569h18.124v2.66l-3.771 3.572-3.904-2.927c-0.222-0.166-0.534-0.135-0.718 0.072l-3.993 4.493-1.493-0.746c0.011-0.064 0.018-0.129 0.02-0.193 0-0.883-0.716-1.599-1.599-1.601zM8.529 15.498c0 0.294-0.239 0.533-0.533 0.533s-0.533-0.239-0.533-0.533 0.239-0.533 0.533-0.533 0.533 0.239 0.533 0.533zM11.727 24.027h5.331v0.533c0 0.294-0.239 0.533-0.533 0.533h-4.264c-0.294 0-0.533-0.239-0.533-0.533zM1.066 24.56c0-0.294 0.239-0.533 0.533-0.533h9.062v0.533c0 0.883 0.716 1.599 1.599 1.599h4.264c0.883 0 1.599-0.716 1.599-1.599v-0.533h9.062c0.294 0 0.533 0.239 0.533 0.533v2.132c0 0.294-0.239 0.533-0.533 0.533H1.598c-0.294 0-0.533-0.239-0.533-0.533z" />
                </symbol>
                <symbol id="icon-facebook" viewBox="0 0 32 32">
                    <path fill="var(--color0, #f4f4fd)" d="M21.329 5.313h2.921V0.225C23.746 0.156 22.013 0 19.994 0c-4.212 0-7.097 2.649-7.097 7.519V12H8.249v5.688h4.648V32h5.699V17.689h4.46l0.708-5.688h-5.169V8.082c1e-3-1.644 0.444-2.769 2.734-2.769z" />
                </symbol>
                <symbol id="icon-instagram" viewBox="0 0 32 32">
                    <path fill="var(--color0, #f4f4fd)" d="M31.969 9.408c-0.075-1.7-0.35-2.869-0.744-3.882-0.406-1.075-1.031-2.038-1.85-2.838-0.8-0.813-1.769-1.444-2.832-1.844-1.019-0.394-2.182-0.669-3.882-0.744C20.948 0.019 20.404 0 16.06 0s-4.888 0.019-6.595 0.094c-1.7 0.075-2.869 0.35-3.882 0.744-1.075 0.406-2.038 1.031-2.838 1.85-0.813 0.8-1.444 1.769-1.844 2.832-0.394 1.019-0.669 2.182-0.744 3.882-0.081 1.713-0.1 2.257-0.1 6.601s0.019 4.888 0.094 6.595c0.075 1.7 0.35 2.869 0.744 3.882 0.406 1.075 1.038 2.038 1.85 2.838 0.8 0.813 1.769 1.444 2.832 1.844 1.019 0.394 2.182 0.669 3.882 0.744 1.706 0.075 2.25 0.094 6.595 0.094s4.888-0.019 6.595-0.094c1.7-0.075 2.869-0.35 3.882-0.744 2.151-0.832 3.851-2.532 4.682-4.682 0.394-1.019 0.669-2.182 0.744-3.882 0.075-1.707 0.094-2.25 0.094-6.595s-6e-3-4.888-0.082-6.595zM29.087 22.473c-0.069 1.563-0.331 2.407-0.55 2.969-0.538 1.394-1.644 2.501-3.038 3.038-0.563 0.219-1.413 0.481-2.969 0.55-1.688 0.075-2.194 0.094-6.464 0.094s-4.782-0.019-6.464-0.094c-1.563-0.069-2.407-0.331-2.969-0.55-0.694-0.256-1.325-0.663-1.838-1.194-0.531-0.519-0.938-1.144-1.194-1.838-0.219-0.563-0.481-1.413-0.55-2.969-0.075-1.688-0.094-2.194-0.094-6.464s0.019-4.782 0.094-6.464c0.069-1.563 0.331-2.407 0.55-2.969 0.256-0.694 0.663-1.325 1.2-1.838C5.32 4.213 5.945 3.806 6.639 3.55 7.202 3.331 8.052 3.069 9.608 3c1.688-0.075 2.194-0.094 6.464-0.094 4.276 0 4.782 0.019 6.464 0.094 1.563 0.069 2.407 0.331 2.969 0.55 0.694 0.256 1.325 0.662 1.838 1.194 0.531 0.519 0.938 1.144 1.194 1.838 0.219 0.563 0.481 1.413 0.55 2.969 0.075 1.688 0.094 2.194 0.094 6.464s-0.019 4.77-0.094 6.458z" />
                    <path fill="var(--color0, #f4f4fd)" d="M16.059 7.783c-4.538 0-8.22 3.682-8.22 8.22s3.682 8.22 8.22 8.22 8.22-3.682 8.22-8.22-3.682-8.22-8.22-8.22zM16.059 21.335c-2.944 0-5.332-2.388-5.332-5.332s2.388-5.332 5.332-5.332 5.332 2.388 5.332 5.332-2.388 5.332-5.332 5.332z" />
                    <path fill="var(--color0, #f4f4fd)" d="M26.524 7.458c0 1.06-0.859 1.919-1.919 1.919s-1.919-0.859-1.919-1.919 0.859-1.919 1.919-1.919 1.919 0.859 1.919 1.919z" />
                </symbol>
                <symbol id="icon-linkedin" viewBox="0 0 32 32">
                    <path fill="var(--color0, #f4f4fd)" d="M31.992 32 32 31.999V20.263c0-5.741-1.236-10.164-7.948-10.164-3.227 0-5.392 1.771-6.276 3.449h-0.093v-2.913h-6.364v21.364h6.627V21.42c0-2.785 0.528-5.479 3.977-5.479 3.399 0 3.449 3.179 3.449 5.657v10.401z" />
                    <path fill="var(--color0, #f4f4fd)" d="M0.528 10.636h6.635V32H0.528z" />
                    <path fill="var(--color0, #f4f4fd)" d="M3.843 0C1.722 0 0 1.721 0 3.843s1.721 3.879 3.843 3.879c2.121 0 3.843-1.757 3.843-3.879C7.685 1.722 5.963 0 3.843 0z" />
                </symbol>
                <symbol id="icon-twitter" viewBox="0 0 32 32">
                    <path fill="var(--color0, #f4f4fd)" d="M25.2 1.5h4.908l-10.72 12.284L32 30.5h-9.874l-7.734-10.14-8.85 10.14h-4.91l11.466-13.14L0 1.5h10.126l6.99 9.266zM23.48 27.556h2.72L8.646 4.29H5.73z" />
                </symbol>
                <symbol id="icon-phone1" viewBox="0 0 32 32">
                    <path d="M22 20c-2 2-2 4-4 4s-4-2-6-4-4-4-4-6 2-2 4-4-4-8-6-8-6 6-6 6c0 4 4.109 12.109 8 16s12 8 16 8c0 0 6-4 6-6s-6-8-8-6z" />
                </symbol>
                <symbol id="icon-user" viewBox="0 0 32 32">
                    <path d="M18 22.082v-1.649c2.203-1.241 4-4.337 4-7.432 0-4.971 0-9-6-9s-6 4.029-6 9c0 3.096 1.797 6.191 4 7.432v1.649C7.216 22.637 2 25.97 2 30h28c0-4.03-5.216-7.364-12-7.918z" />
                </symbol>
            </defs>
        </symbol>
        <symbol id="icon-checkbox" viewBox="0 0 32 32" fill="currentColor">
            <path d="M5.6 3h20.8C27.836 3 29 4.164 29 5.6v20.8c0 1.436-1.164 2.6-2.6 2.6H5.6C4.164 29 3 27.836 3 26.4V5.6C3 4.164 4.164 3 5.6 3z" />
        </symbol>
        <symbol id="icon-close" viewBox="0 0 32 32" fill="currentColor">
            <path d="M30.25 4.62 27.38 1.75 16 13.13 4.62 1.75 1.75 4.62 13.13 16 1.75 27.38l2.87 2.87L16 18.87 27.38 30.25l2.87-2.87L18.87 16z" />
        </symbol>
        <symbol id="icon-envelope" viewBox="0 0 43 32" fill="currentColor">
            <path d="M36.25 1.25H6.75c-2.028 0-3.669 1.659-3.669 3.688L3.063 27.063c0 2.028 1.659 3.688 3.688 3.688h29.5c2.028 0 3.688-1.659 3.688-3.688V4.938c0-2.028-1.659-3.688-3.689-3.688zM35.513 9.086 22.478 17.235c-0.59 0.369-1.364 0.369-1.954 0L7.489 9.086C7.028 8.791 6.752 8.293 6.752 7.759c0-1.235 1.346-1.973 2.397-1.327l12.353 7.725 12.353-7.725c1.051-0.645 2.397 0.092 2.397 1.327 0 0.535-0.277 1.033-0.739 1.327z" />
        </symbol>
        <symbol id="icon-frame" viewBox="0 0 38 32">
            <path fill="var(--color3, #fff)" d="M36.001 2 2.401 17.75l10.738 3.314 16.562-12.939-12.598 14.163 0.01 3e-3-0.013-3e-3V30l6.022-5.854 7.628 2.354z" />
        </symbol>
        <symbol id="icon-person" viewBox="0 0 33 32" fill="currentColor">
            <path d="M16.5 16c4.075 0 7.375-3.3 7.375-7.375S20.575 1.25 16.5 1.25 9.125 4.55 9.125 8.625 12.425 16 16.5 16zM16.5 19.688c-4.923 0-14.75 2.471-14.75 7.375v1.844c0 1.014 0.83 1.844 1.844 1.844h25.813c1.014 0 1.844-0.83 1.844-1.844v-1.844c0-4.904-9.827-7.375-14.751-7.375z" />
        </symbol>
        <symbol id="icon-phone" viewBox="0 0 34 32" fill="currentColor">
            <path d="M29.213 21.64l-4.383-0.5c-1.053-0.121-2.088 0.242-2.83 0.984l-3.175 3.175c-4.884-2.485-8.887-6.471-11.372-11.372l3.192-3.193c0.742-0.742 1.104-1.777 0.984-2.83l-0.5-4.349c-0.207-1.743-1.674-3.054-3.434-3.054H4.71c-1.95 0-3.572 1.622-3.451 3.572C2.174 18.811 13.96 30.58 28.68 31.494c1.95 0.121 3.572-1.501 3.572-3.451v-2.986c0.017-1.743-1.294-3.21-3.039-3.417z" />
        </symbol>
        <symbol id="icon-antena" viewBox="0 0 32 32">
            <path fill="var(--color1, #2e2f42)" d="M30.773 22.098 22.33 13.593l0.937-4.615c0.242 0.094 0.499 0.144 0.758 0.146h6e-3c1.192 0.014 2.17-0.941 2.184-2.133s-0.941-2.17-2.133-2.184-2.17 0.941-2.184 2.133c-3e-3 0.255 0.039 0.509 0.125 0.749l-4.96 0.605-8.091-8.133C8.873 0.06 8.737 2e-3 8.595 1e-3 8.455 2e-3 8.321 0.057 8.222 0.156L6.709 1.66c-0.208 0.208-0.208 0.546 0 0.754L7.523 3.24C4.37 9.038 5.394 16.218 10.042 20.903c0.043 0.041 0.092 0.074 0.146 0.098-0.034 0.18-0.051 0.364-0.052 0.547v6.187h-6.4c-1.472 2e-3-2.665 1.195-2.667 2.667v1.067c0 0.295 0.239 0.533 0.533 0.533h24.533c0.295 0 0.533-0.239 0.533-0.533v-1.067c-2e-3-1.472-1.195-2.665-2.667-2.667h-6.4v-2.742c1.003 0.21 2.024 0.317 3.049 0.32 2.458-3e-3 4.877-0.615 7.04-1.783l0.818 0.823c0.099 0.101 0.235 0.159 0.377 0.16 0.14-1e-3 0.274-0.056 0.373-0.155l1.513-1.504c0.208-0.208 0.208-0.546 2e-3-0.756zM23.28 6.233c0.418-0.415 1.093-0.414 1.509 4e-3s0.414 1.093-4e-3 1.508c-0.2 0.199-0.47 0.31-0.752 0.31h-3e-3c-0.589-3e-3-1.064-0.483-1.061-1.072 2e-3-0.282 0.115-0.552 0.314-0.751zM22.024 9.738l-0.598 2.946-1.175-1.182zM21.419 8.836l-1.92 1.909-1.485-1.493zM24.004 28.8c0.884 0 1.6 0.716 1.6 1.6v0.533H2.137V30.4c0-0.884 0.716-1.6 1.6-1.6zM16.537 26.667v1.067h-5.333v-1.067zM11.204 25.6v-4.053c0-1.294 1.196-2.347 2.667-2.347s2.667 1.053 2.667 2.347V25.6zM17.604 23.904v-2.357c0-1.882-1.675-3.413-3.733-3.413-1.331-0.02-2.576 0.657-3.281 1.786C6.532 15.646 5.619 9.275 8.311 4.033l18.602 18.708c-2.872 1.461-6.165 1.873-9.309 1.163zM28.893 23.22 7.836 2.039 8.591 1.287l7.935 7.98c4e-3 0 6e-3 7e-3 0.01 0.01l13.115 13.191z" />
            <path fill="var(--color2, #4d5ae5)" d="M13.876 20.267h-5e-3c-0.884-1e-3-1.601 0.714-1.602 1.598s0.714 1.601 1.598 1.602h5e-3c0.884 1e-3 1.601-0.714 1.602-1.598s-0.714-1.601-1.598-1.602zM14.249 22.245c-0.1 0.1-0.236 0.156-0.378 0.155-0.295-2e-3-0.532-0.242-0.531-0.536 1e-3-0.141 0.057-0.276 0.157-0.375s0.233-0.154 0.373-0.155c0.295 2e-3 0.532 0.241 0.531 0.536-1e-3 0.141-0.057 0.276-0.157 0.375z" />
        </symbol>
        <symbol id="icon-astronaut" viewBox="0 0 32 32" fill="var(--color2, #4d5ae5)">
            <path d="M31.974 4.524c-0.063-0.193-0.229-0.333-0.43-0.363l-1.91-0.278-0.855-1.731c-0.179-0.365-0.777-0.365-0.956 0l-0.855 1.731-1.91 0.278c-0.201 0.029-0.367 0.17-0.431 0.363-0.062 0.193-0.011 0.405 0.135 0.547l1.383 1.348-0.326 1.903c-0.034 0.2 0.048 0.402 0.212 0.522 0.166 0.121 0.382 0.135 0.562 0.04l1.709-0.899 1.709 0.899c0.078 0.041 0.164 0.061 0.249 0.061 0.11 0 0.221-0.034 0.314-0.102 0.164-0.119 0.246-0.322 0.212-0.522L30.46 6.418 31.843 5.07c0.145-0.142 0.197-0.354 0.131-0.546zM29.511 5.851c-0.125 0.122-0.183 0.299-0.153 0.472l0.191 1.114-1-0.526C28.471 6.87 28.386 6.85 28.3 6.85s-0.17 0.02-0.249 0.061L27.05 7.437l0.191-1.114c0.03-0.173-0.028-0.349-0.153-0.472l-0.81-0.789 1.119-0.163c0.174-0.025 0.324-0.134 0.402-0.292l0.5-1.013 0.5 1.013c0.078 0.157 0.228 0.267 0.402 0.292l1.119 0.163z" />
            <path d="M26.133 20.522h-1.067v1.067h1.067z" />
            <path d="M26.133 22.656h-1.067v1.067h1.067z" />
            <path d="M27.2 21.589h-1.067v1.067H27.2z" />
            <path d="M25.067 21.589H24v1.067h1.067z" />
            <path d="M22.4 26.389h-1.067v1.067H22.4z" />
            <path d="M22.4 28.522h-1.067v1.067H22.4z" />
            <path d="M23.467 27.456H22.4v1.067h1.067z" />
            <path d="M21.333 27.456h-1.067v1.067h1.067z" />
            <path d="M16 24.256h-1.067v1.067H16z" />
            <path d="M16 26.389h-1.067v1.067H16z" />
            <path d="M17.067 25.322H16v1.067h1.067z" />
            <path d="M14.933 25.322h-1.067v1.067h1.067z" />
            <path d="M5.867 6.122H4.8v1.067h1.067z" />
            <path d="M5.867 8.255H4.8v1.067h1.067z" />
            <path d="M6.933 7.189H5.866v1.067h1.067z" />
            <path d="M4.8 7.189H3.733v1.067H4.8z" />
            <path fill="var(--color1, #2e2f42)" d="M24.715 14.159c-0.287-0.388-0.709-0.637-1.188-0.705-0.481-0.068-0.956 0.058-1.34 0.352l-1.252 0.96-1.898 1.417-1.358-0.541c2.421-1.086 4.114-3.508 4.114-6.32 0-3.823-3.123-6.933-6.961-6.933s-6.961 3.11-6.961 6.933c0 1.386 0.414 2.674 1.12 3.758l-2.764-0.024c-2e-3 0-3e-3 0-5e-3 0-9e-3 0-0.015 4e-3-0.023 5e-3-0.053 2e-3-0.105 0.013-0.155 0.031-0.013 5e-3-0.026 8e-3-0.038 0.013-6e-3 3e-3-0.013 3e-3-0.019 6e-3l-3.233 1.596c-1e-3 0-1e-3 0-1e-3 1e-3L0.86 15.619c-0.021 9e-3-0.042 0.021-0.063 0.035-0.755 0.502-1.012 1.489-0.598 2.295 0.22 0.429 0.595 0.745 1.056 0.889 0.178 0.055 0.359 0.083 0.539 0.083 0.29 0 0.577-0.071 0.839-0.211l1.388-0.738 2.264-1.169 1.357-8e-3L2.2 22.211c-1e-3 1e-3-1e-3 1e-3-2e-3 1e-3l-1.339 1.333c-0.316 0.315-0.49 0.732-0.49 1.178s0.174 0.863 0.49 1.179c0.325 0.323 0.752 0.485 1.179 0.485s0.854-0.162 1.18-0.485l1.314-1.309 1.741-1.3 0.901 0.897-1.762 1.754c0 1e-3-1e-3 1e-3-2e-3 1e-3l-1.339 1.333c-0.316 0.315-0.49 0.732-0.49 1.178s0.174 0.863 0.49 1.179c0.325 0.323 0.753 0.485 1.18 0.485s0.855-0.162 1.18-0.485l3.482-3.467c1e-3-1e-3 1e-3-1e-3 1e-3-2e-3l1.01-1-4e-3-4e-3c6e-3-6e-3 0.015-9e-3 0.022-0.015l5.166-5.658 3.471 0.494c0.025 4e-3 0.05 5e-3 0.075 5e-3 0.065 0 0.127-0.015 0.187-0.038 0.018-6e-3 0.033-0.015 0.05-0.023 0.019-0.01 0.039-0.015 0.058-0.027l3.213-2.133c0.012-8e-3 0.018-0.021 0.029-0.029 0.013-0.01 0.029-0.014 0.041-0.026l1.271-1.191c0.662-0.62 0.753-1.635 0.212-2.362zM2.13 17.77c-0.173 0.093-0.37 0.111-0.558 0.052-0.187-0.058-0.338-0.186-0.427-0.358-0.161-0.314-0.068-0.695 0.214-0.902l1.314-0.632 0.449 1.313zM5.628 15.942l-1.548 0.8-0.439-1.283 2.027-1.001zM20.727 9.322c0 0.918-0.219 1.785-0.599 2.559l-4.181-1.899c-0.044-0.573-0.341-1.075-0.788-1.388l1.464-4.86c2.378 0.756 4.105 2.974 4.104 5.588zM8.938 9.322c0-3.235 2.644-5.867 5.894-5.867 0.253 0 0.5 0.021 0.745 0.052l-1.432 4.754c-0.019-1e-3-0.037-6e-3-0.057-6e-3-1.033 0-1.873 0.837-1.873 1.867s0.84 1.867 1.873 1.867c0.694 0 1.294-0.383 1.618-0.945l3.862 1.755c-1.075 1.446-2.795 2.39-4.737 2.39-3.25 0-5.894-2.632-5.893-5.867zM14.894 10.122c0 0.441-0.362 0.8-0.806 0.8s-0.806-0.359-0.806-0.8 0.362-0.8 0.806-0.8 0.806 0.359 0.806 0.8zM2.465 25.146c-0.236 0.234-0.619 0.234-0.854 1e-3-0.114-0.114-0.176-0.263-0.176-0.423s0.062-0.309 0.176-0.421l0.962-0.958 0.851 0.848zM5.679 28.88c-0.236 0.234-0.619 0.235-0.855 1e-3-0.114-0.114-0.176-0.263-0.176-0.423s0.062-0.309 0.176-0.421l0.963-0.959 0.852 0.848zM9.16 25.411c-1e-3 0-1e-3 0-2e-3 1e-3l-1.765 1.76-0.852-0.848 1.763-1.755c0 0 0 0 0 0s1e-3-1e-3 2e-3-1e-3c0.04-0.04 0.065-0.088 0.09-0.135 7e-3-0.014 0.02-0.026 0.026-0.04 0.017-0.041 0.019-0.085 0.026-0.129 3e-3-0.025 0.014-0.047 0.014-0.073 0-0.036-0.013-0.07-0.02-0.106-6e-3-0.032-6e-3-0.065-0.019-0.095-0.02-0.05-0.055-0.094-0.091-0.138-0.01-0.012-0.014-0.027-0.025-0.038 0 0 0 0-1e-3 0s-1e-3-2e-3-1e-3-2e-3l-1.607-1.6c-0.017-0.017-0.039-0.024-0.058-0.038-0.028-0.022-0.055-0.042-0.087-0.058-0.03-0.015-0.061-0.024-0.093-0.033-0.034-0.01-0.067-0.017-0.103-0.02-0.033-2e-3-0.063 1e-3-0.095 5e-3-0.036 4e-3-0.069 9e-3-0.104 0.02-0.034 0.011-0.063 0.027-0.094 0.045-0.02 0.011-0.042 0.015-0.061 0.029L4.23 23.486 3.329 22.589l2.399-2.386 4.361 4.289zM15.979 18.394c-0.015-2e-3-0.03 4e-3-0.045 3e-3-0.039-2e-3-0.076 1e-3-0.115 7e-3-0.03 5e-3-0.059 0.011-0.088 0.021-0.034 0.012-0.065 0.028-0.097 0.047-0.03 0.018-0.057 0.037-0.083 0.061-0.013 0.011-0.028 0.017-0.04 0.029l-4.698 5.146-4.328-4.257 2.833-2.818c0.209-0.208 0.21-0.546 2e-3-0.755-0.105-0.105-0.243-0.157-0.381-0.156L6.72 15.735l0.028-1.607 3.104 0.027c1.265 1.294 3.029 2.101 4.981 2.101 0.437 0 0.864-0.045 1.279-0.123 0.04 0.032 0.079 0.065 0.13 0.085l2.41 0.96 0.331 1.644zM20.02 18.572l-0.313-1.558 1.446-1.08 0.947 1.257zM23.774 15.741l-0.838 0.785-0.931-1.236 0.831-0.637c0.155-0.119 0.351-0.168 0.543-0.143 0.193 0.027 0.364 0.128 0.48 0.284 0.217 0.292 0.18 0.699-0.085 0.947z" />
            <path fill="var(--color1, #2e2f42)" d="M13.602 18.544l-2.143-2.133c-0.207-0.207-0.545-0.207-0.753 0l-2.142 2.133c-0.1 0.101-0.157 0.236-0.157 0.378S8.463 19.2 8.564 19.3l2.142 2.133c0.104 0.103 0.241 0.155 0.377 0.155s0.273-0.052 0.376-0.155l2.143-2.133c0.1-0.1 0.157-0.236 0.157-0.378s-0.057-0.278-0.157-0.378zM11.083 20.303 9.696 18.922l1.387-1.381 1.387 1.381z" />
            <path fill="var(--color1, #2e2f42)" d="M17.164 5.071 16.906 6.107c0.071 0.018 1.738 0.452 1.738 2.149h1.067c0-2.017-1.666-2.965-2.547-3.185z" />
            <path fill="var(--color1, #2e2f42)" d="M19.711 9.322h-1.067v1.067h1.067z" />
        </symbol>
        <symbol id="icon-clock" viewBox="0 0 32 32" fill="var(--color2, #4d5ae5)">
            <path fill="var(--color1, #2e2f42)" d="M31.297 15.301C31.295 6.849 24.442-2e-3 15.989 0S0.686 6.855 0.688 15.308c1e-3 6.658 4.307 12.551 10.649 14.576 0.06 0.019 0.123 0.029 0.187 0.029 0.121 0 0.239-0.032 0.342-0.094 0.135-0.08 0.236-0.207 0.283-0.356l3.865-12.25c1.057-5e-3 1.909-0.866 1.903-1.923s-0.866-1.909-1.923-1.903c-0.284 1e-3-0.565 0.067-0.82 0.191l-5.106-5.107C9.815 8.226 9.411 8.233 9.166 8.487c-0.239 0.247-0.239 0.639 0 0.886l5.103 5.109c-0.392 0.799-0.168 1.764 0.536 2.309l-3.683 11.673C3.844 25.783 0.118 17.71 2.799 10.432S13.553-0.572 20.831 2.109s11.004 10.754 8.323 18.032c-1.31 3.556-4.001 6.431-7.462 7.973l-0.398-1.874c-0.073-0.345-0.411-0.565-0.756-0.492-0.109 0.023-0.209 0.074-0.292 0.148l-3.837 3.426c-0.263 0.234-0.287 0.637-0.052 0.9 0.076 0.085 0.174 0.149 0.283 0.184l4.899 1.564c0.335 0.108 0.694-0.077 0.802-0.412 0.034-0.106 0.04-0.219 0.017-0.328l-0.391-1.839c5.664-2.388 9.342-7.942 9.33-14.09zM15.992 14.664c0.352 0 0.638 0.286 0.638 0.638s-0.286 0.638-0.638 0.638-0.638-0.285-0.638-0.638 0.285-0.638 0.638-0.638zM18.093 29.528l2.184-1.948 0.603 2.84z" />
            <path d="M15.354 3.185V4.46c0 0.352 0.285 0.638 0.638 0.638S16.63 4.813 16.63 4.46V3.185c0-0.352-0.286-0.638-0.638-0.638s-0.638 0.286-0.638 0.638z" />
            <path d="M3.876 14.664c-0.352 0-0.638 0.286-0.638 0.638s0.285 0.638 0.638 0.638h1.275c0.352 0 0.638-0.285 0.638-0.638s-0.285-0.638-0.638-0.638z" />
            <path d="M28.108 15.939c0.352 0 0.638-0.285 0.638-0.638s-0.285-0.638-0.638-0.638h-1.275c-0.352 0-0.638 0.286-0.638 0.638s0.286 0.638 0.638 0.638z" />
        </symbol>
        <symbol id="icon-diagram" viewBox="0 0 32 32" fill="var(--color2, #4d5ae5)">
            <path d="M14.925 14.965h1.066v4.798h-1.066z" />
            <path d="M19.19 17.097h1.066v2.665H19.19z" />
            <path d="M10.661 18.696h1.066v1.066h-1.066z" />
            <path d="M7.463 18.163h1.066v1.599H7.463z" />
            <path fill="var(--color1, #2e2f42)" d="M1.599 28.291h25.587c0.883 0 1.599-0.716 1.599-1.599V24.56c0-0.883-0.716-1.599-1.599-1.599h-0.533V9.668L29.681 6.8c0.703 0.346 1.553 0.136 2.013-0.499s0.396-1.508-0.152-2.068-1.42-0.644-2.065-0.198c-0.644 0.446-0.873 1.292-0.542 2.002L26.654 8.2V6.97c0-0.883-0.716-1.599-1.599-1.599H3.733c-0.883 0-1.599 0.716-1.599 1.599v15.992H1.601c-0.883 0-1.599 0.716-1.599 1.599v2.132c0 0.883 0.716 1.599 1.597 1.598zM30.384 4.837c0.294 0 0.533 0.239 0.533 0.533s-0.239 0.533-0.533 0.533-0.533-0.239-0.533-0.533 0.239-0.533 0.533-0.533zM3.198 6.969c0-0.294 0.239-0.533 0.533-0.533h21.322c0.294 0 0.533 0.239 0.533 0.533v2.239l-1.066 1.013V8.035c0-0.294-0.239-0.533-0.533-0.533H4.797c-0.294 0-0.533 0.239-0.533 0.533v13.326c0 0.294 0.239 0.533 0.533 0.533h19.19c0.294 0 0.533-0.239 0.533-0.533v-9.674l1.066-1.01v12.284H3.198zM7.996 13.899c-0.721-2e-3-1.354 0.478-1.546 1.174s0.105 1.433 0.725 1.801 1.41 0.276 1.928-0.226l1.853 0.93c0.215 0.108 0.476 0.057 0.636-0.123l3.939-4.431 3.872 2.901c0.208 0.156 0.498 0.139 0.686-0.039l3.365-3.188v8.131H5.33V8.569h18.124v2.66l-3.771 3.572-3.904-2.927c-0.222-0.166-0.534-0.135-0.718 0.072l-3.993 4.493-1.493-0.746c0.011-0.064 0.018-0.129 0.02-0.193 0-0.883-0.716-1.599-1.599-1.601zM8.529 15.498c0 0.294-0.239 0.533-0.533 0.533s-0.533-0.239-0.533-0.533 0.239-0.533 0.533-0.533 0.533 0.239 0.533 0.533zM11.727 24.027h5.331v0.533c0 0.294-0.239 0.533-0.533 0.533h-4.264c-0.294 0-0.533-0.239-0.533-0.533zM1.066 24.56c0-0.294 0.239-0.533 0.533-0.533h9.062v0.533c0 0.883 0.716 1.599 1.599 1.599h4.264c0.883 0 1.599-0.716 1.599-1.599v-0.533h9.062c0.294 0 0.533 0.239 0.533 0.533v2.132c0 0.294-0.239 0.533-0.533 0.533H1.598c-0.294 0-0.533-0.239-0.533-0.533z" />
        </symbol>
        <symbol id="icon-facebook" viewBox="0 0 32 32">
            <path fill="var(--color0, #f4f4fd)" d="M21.329 5.313h2.921V0.225C23.746 0.156 22.013 0 19.994 0c-4.212 0-7.097 2.649-7.097 7.519V12H8.249v5.688h4.648V32h5.699V17.689h4.46l0.708-5.688h-5.169V8.082c1e-3-1.644 0.444-2.769 2.734-2.769z" />
        </symbol>
        <symbol id="icon-instagram" viewBox="0 0 32 32" fill="var(--color0, #f4f4fd)">
            <path d="M31.969 9.408c-0.075-1.7-0.35-2.869-0.744-3.882-0.406-1.075-1.031-2.038-1.85-2.838-0.8-0.813-1.769-1.444-2.832-1.844-1.019-0.394-2.182-0.669-3.882-0.744C20.948 0.019 20.404 0 16.06 0s-4.888 0.019-6.595 0.094c-1.7 0.075-2.869 0.35-3.882 0.744-1.075 0.406-2.038 1.031-2.838 1.85-0.813 0.8-1.444 1.769-1.844 2.832-0.394 1.019-0.669 2.182-0.744 3.882-0.081 1.713-0.1 2.257-0.1 6.601s0.019 4.888 0.094 6.595c0.075 1.7 0.35 2.869 0.744 3.882 0.406 1.075 1.038 2.038 1.85 2.838 0.8 0.813 1.769 1.444 2.832 1.844 1.019 0.394 2.182 0.669 3.882 0.744 1.706 0.075 2.25 0.094 6.595 0.094s4.888-0.019 6.595-0.094c1.7-0.075 2.869-0.35 3.882-0.744 2.151-0.832 3.851-2.532 4.682-4.682 0.394-1.019 0.669-2.182 0.744-3.882 0.075-1.707 0.094-2.25 0.094-6.595s-6e-3-4.888-0.082-6.595zM29.087 22.473c-0.069 1.563-0.331 2.407-0.55 2.969-0.538 1.394-1.644 2.501-3.038 3.038-0.563 0.219-1.413 0.481-2.969 0.55-1.688 0.075-2.194 0.094-6.464 0.094s-4.782-0.019-6.464-0.094c-1.563-0.069-2.407-0.331-2.969-0.55-0.694-0.256-1.325-0.663-1.838-1.194-0.531-0.519-0.938-1.144-1.194-1.838-0.219-0.563-0.481-1.413-0.55-2.969-0.075-1.688-0.094-2.194-0.094-6.464s0.019-4.782 0.094-6.464c0.069-1.563 0.331-2.407 0.55-2.969 0.256-0.694 0.663-1.325 1.2-1.838C5.32 4.213 5.945 3.806 6.639 3.55 7.202 3.331 8.052 3.069 9.608 3c1.688-0.075 2.194-0.094 6.464-0.094 4.276 0 4.782 0.019 6.464 0.094 1.563 0.069 2.407 0.331 2.969 0.55 0.694 0.256 1.325 0.662 1.838 1.194 0.531 0.519 0.938 1.144 1.194 1.838 0.219 0.563 0.481 1.413 0.55 2.969 0.075 1.688 0.094 2.194 0.094 6.464s-0.019 4.77-0.094 6.458z" />
            <path d="M16.059 7.783c-4.538 0-8.22 3.682-8.22 8.22s3.682 8.22 8.22 8.22 8.22-3.682 8.22-8.22-3.682-8.22-8.22-8.22zM16.059 21.335c-2.944 0-5.332-2.388-5.332-5.332s2.388-5.332 5.332-5.332 5.332 2.388 5.332 5.332-2.388 5.332-5.332 5.332z" />
            <path d="M26.524 7.458c0 1.06-0.859 1.919-1.919 1.919s-1.919-0.859-1.919-1.919 0.859-1.919 1.919-1.919 1.919 0.859 1.919 1.919z" />
        </symbol>
        <symbol id="icon-linkedin" viewBox="0 0 32 32" fill="var(--color0, #f4f4fd)">
            <path d="M31.992 32 32 31.999V20.263c0-5.741-1.236-10.164-7.948-10.164-3.227 0-5.392 1.771-6.276 3.449h-0.093v-2.913h-6.364v21.364h6.627V21.42c0-2.785 0.528-5.479 3.977-5.479 3.399 0 3.449 3.179 3.449 5.657v10.401z" />
            <path d="M0.528 10.636h6.635V32H0.528z" />
            <path d="M3.843 0C1.722 0 0 1.721 0 3.843s1.721 3.879 3.843 3.879c2.121 0 3.843-1.757 3.843-3.879C7.685 1.722 5.963 0 3.843 0z" />
        </symbol>
        <symbol id="icon-twitter" viewBox="0 0 32 32">
            <path fill="var(--color0, #f4f4fd)" d="M25.2 1.5h4.908l-10.72 12.284L32 30.5h-9.874l-7.734-10.14-8.85 10.14h-4.91l11.466-13.14L0 1.5h10.126l6.99 9.266zM23.48 27.556h2.72L8.646 4.29H5.73z" />
        </symbol>
        <symbol id="icon-phone1" viewBox="0 0 32 32" fill="currentColor">
            <path d="M22 20c-2 2-2 4-4 4s-4-2-6-4-4-4-4-6 2-2 4-4-4-8-6-8-6 6-6 6c0 4 4.109 12.109 8 16s12 8 16 8c0 0 6-4 6-6s-6-8-8-6z" />
        </symbol>
        <symbol id="icon-user" viewBox="0 0 32 32" fill="currentColor">
            <path d="M18 22.082v-1.649c2.203-1.241 4-4.337 4-7.432 0-4.971 0-9-6-9s-6 4.029-6 9c0 3.096 1.797 6.191 4 7.432v1.649C7.216 22.637 2 25.97 2 30h28c0-4.03-5.216-7.364-12-7.918z" />
        </symbol>
    </defs>
</svg>